<svg width="15" height="15" viewBox="0 0 15 15" fill="none" xmlns="http://www.w3.org/2000/svg">
<path fill-rule="evenodd" clip-rule="evenodd" d="M7.5 5.41625C6.35125 5.41625 5.41687 6.35125 5.41687 7.5C5.41687 8.64875 6.35125 9.58313 7.5 9.58313C8.64875 9.58313 9.58313 8.64875 9.58313 7.5C9.58313 6.35125 8.64875 5.41625 7.5 5.41625ZM7.5 10.2081C6.00625 10.2081 4.79187 8.99375 4.79187 7.5C4.79187 6.00625 6.00625 4.79125 7.5 4.79125C8.99375 4.79125 10.2081 6.00625 10.2081 7.5C10.2081 8.99375 8.99375 10.2081 7.5 10.2081ZM6.75437 14.375H8.24562C8.4825 13.685 8.66313 12.8431 9.5625 12.4688C10.4975 12.0831 11.2287 12.5912 11.8344 12.8888L12.8881 11.8337C12.5706 11.1794 12.0969 10.4594 12.47 9.55813C12.8244 8.7025 13.5569 8.51875 14.375 8.24625V6.75375C13.6031 6.49062 12.8306 6.31125 12.4706 5.4425C12.1131 4.58 12.5062 3.94563 12.8888 3.16563L11.8344 2.11188C11.1362 2.45375 10.4462 2.8975 9.55813 2.52938C8.69938 2.1725 8.52312 1.44562 8.24562 0.625H6.75437C6.48938 1.39437 6.31437 2.1675 5.4425 2.52875C5.21438 2.62438 4.99375 2.67 4.76937 2.67C4.2425 2.67 3.8075 2.425 3.16563 2.11188L2.11125 3.16563C2.47 3.9 2.89313 4.56375 2.52938 5.4425C2.1725 6.30188 1.44562 6.47625 0.625 6.75375V8.24625C1.39125 8.5075 2.1675 8.68688 2.52938 9.5575C2.8925 10.4344 2.4825 11.0775 2.11125 11.8344L3.16563 12.8888C4.07188 12.4356 4.6375 12.1362 5.44187 12.4706C6.30312 12.8281 6.47625 13.5569 6.75437 14.375ZM8.68812 15H6.31125C5.88562 13.8013 5.82062 13.3044 5.20312 13.0481C4.575 12.7863 4.12125 13.1306 3.03688 13.6431L1.35625 11.9625C1.90188 10.8144 2.21062 10.4219 1.95187 9.79688C1.69437 9.1775 1.20687 9.1175 0 8.68875V6.31125C1.19125 5.8875 1.695 5.8225 1.95187 5.20312C2.20875 4.58375 1.9075 4.195 1.35625 3.03688L3.03688 1.35687C4.125 1.87437 4.57812 2.21 5.2025 1.9525C5.8225 1.695 5.87875 1.21187 6.31187 0H8.68812C9.11438 1.19875 9.18062 1.69625 9.79688 1.95187C10.4225 2.21187 10.865 1.8775 11.9637 1.35687L13.6431 3.03688C13.0944 4.19125 12.7925 4.585 13.0481 5.2025C13.305 5.8225 13.7931 5.88187 15 6.31125V8.68937C13.8088 9.1125 13.3044 9.17812 13.0475 9.7975C12.7956 10.4069 13.075 10.7731 13.6438 11.9625L11.9637 13.6431C10.8837 13.1306 10.4219 12.7869 9.80375 13.0463C9.18625 13.3025 9.12875 13.7625 8.68812 15Z" fill="black"/>
</svg>
