<svg width="154" height="38" viewBox="0 0 154 38" fill="none" xmlns="http://www.w3.org/2000/svg">
<path d="M9.67434 24.1686C7.76931 24.1686 6.08233 23.8588 4.61339 23.2391C3.1674 22.5964 2.03127 21.6439 1.20499 20.3815C0.401663 19.1192 0 17.5584 0 15.6993C0 13.1057 0.73447 11.04 2.20341 9.5022C3.67235 7.94145 5.86428 7.16108 8.77921 7.16108C11.4417 7.16108 13.5188 7.83817 15.0107 9.19235C16.5256 10.5465 17.283 12.3942 17.283 14.7353V17.5928H5.95609C6.25447 18.465 6.83975 19.0847 7.71193 19.452C8.58411 19.8192 9.76615 20.0028 11.258 20.0028C12.1991 20.0028 13.1401 19.9225 14.0812 19.7618C15.0451 19.5782 15.814 19.3716 16.3879 19.1421V23.0325C14.7812 23.7899 12.5434 24.1686 9.67434 24.1686ZM5.95609 14.0812H11.7056V13.4959C11.7056 12.8532 11.499 12.3253 11.0859 11.9122C10.6957 11.499 9.99567 11.2925 8.98578 11.2925C7.86112 11.2925 7.06927 11.5335 6.61023 12.0155C6.17413 12.4745 5.95609 13.1631 5.95609 14.0812Z" fill="black"/>
<path d="M20.5798 23.8244V12.2909H18.4796V7.50536H20.5798V6.43809C20.5798 4.60191 21.1077 3.08707 22.1635 1.89355C23.2193 0.677089 24.803 0.0688556 26.9146 0.0688556C27.8097 0.0688556 28.6015 0.137713 29.2901 0.275427C30.0016 0.413139 30.6672 0.608232 31.287 0.860706V5.06095C30.9427 4.94619 30.5984 4.85438 30.2541 4.78553C29.9328 4.71667 29.5885 4.68224 29.2213 4.68224C28.395 4.68224 27.8212 4.83143 27.4998 5.12981C27.2015 5.42819 27.0523 5.91018 27.0523 6.5758V7.50536H30.9082L30.6328 12.2909H27.0523V23.8244H20.5798Z" fill="black"/>
<path d="M32.4441 23.8244V12.2909H30.3439V7.50536H32.4441V6.54137C32.4441 5.34786 32.7195 4.25763 33.2703 3.27069C33.8441 2.28374 34.6934 1.49189 35.818 0.895136C36.9427 0.298379 38.3198 0 39.9494 0C41.9233 0 43.53 0.240998 44.7694 0.722994V5.09538C44.4939 4.98062 44.1152 4.88881 43.6332 4.81996C43.1513 4.72815 42.7037 4.68224 42.2905 4.68224C40.0412 4.68224 38.9166 5.34786 38.9166 6.67908V7.50536H48.6253V23.8244H42.1528V12.2909H38.9166V23.8244H32.4441Z" fill="black"/>
<path d="M60.6427 24.1686C57.6819 24.1686 55.3407 23.4686 53.6193 22.0685C51.8979 20.6455 51.0372 18.5109 51.0372 15.6649C51.0372 13.7369 51.4389 12.1417 52.2422 10.8793C53.0455 9.61696 54.1702 8.6874 55.6162 8.09064C57.0621 7.47093 58.7491 7.16108 60.6771 7.16108C61.8936 7.16108 62.9838 7.25289 63.9478 7.4365C64.9118 7.59717 65.8299 7.88407 66.7021 8.29721V12.8417C65.3479 12.1991 63.8101 11.8778 62.0887 11.8778C60.6197 11.8778 59.5066 12.1532 58.7491 12.704C58.0147 13.2549 57.6474 14.2418 57.6474 15.6649C57.6474 16.9961 58.0032 17.9601 58.7147 18.5568C59.4262 19.1536 60.5509 19.452 62.0887 19.452C62.915 19.452 63.7183 19.3602 64.4986 19.1765C65.279 18.97 66.025 18.6831 66.7365 18.3158V23.0669C65.8643 23.4571 64.9233 23.7325 63.9134 23.8932C62.9264 24.0768 61.8362 24.1686 60.6427 24.1686Z" fill="black"/>
<path d="M70.2778 5.33638V0.654137H77.2667V5.33638H70.2778ZM70.7942 23.8244V12.222H68.4186L68.9695 7.50536H77.2667V23.8244H70.7942Z" fill="black"/>
<path d="M89.3569 24.1686C87.4519 24.1686 85.7649 23.8588 84.296 23.2391C82.85 22.5964 81.7139 21.6439 80.8876 20.3815C80.0843 19.1192 79.6826 17.5584 79.6826 15.6993C79.6826 13.1057 80.4171 11.04 81.886 9.5022C83.3549 7.94145 85.5469 7.16108 88.4618 7.16108C91.1243 7.16108 93.2014 7.83817 94.6933 9.19235C96.2081 10.5465 96.9656 12.3942 96.9656 14.7353V17.5928H85.6387C85.9371 18.465 86.5223 19.0847 87.3945 19.452C88.2667 19.8192 89.4487 20.0028 90.9406 20.0028C91.8817 20.0028 92.8227 19.9225 93.7637 19.7618C94.7277 19.5782 95.4966 19.3716 96.0704 19.1421V23.0325C94.4638 23.7899 92.226 24.1686 89.3569 24.1686ZM85.6387 14.0812H91.3882V13.4959C91.3882 12.8532 91.1816 12.3253 90.7685 11.9122C90.3783 11.499 89.6783 11.2925 88.6684 11.2925C87.5437 11.2925 86.7519 11.5335 86.2928 12.0155C85.8567 12.4745 85.6387 13.1631 85.6387 14.0812Z" fill="black"/>
<path d="M99.3672 23.8244V7.50536H105.427L105.599 8.74478C106.218 8.33164 107.033 7.9644 108.043 7.64307C109.076 7.32174 110.178 7.16108 111.348 7.16108C113.391 7.16108 114.883 7.66602 115.824 8.67592C116.765 9.68582 117.235 11.2466 117.235 13.3582V23.8244H110.763V14.0123C110.763 13.2778 110.602 12.7499 110.281 12.4286C109.96 12.1073 109.397 11.9466 108.594 11.9466C108.112 11.9466 107.607 12.0614 107.079 12.2909C106.574 12.5204 106.161 12.7958 105.84 13.1172V23.8244H99.3672Z" fill="black"/>
<path d="M119.457 23.8244V20.2782L126.308 12.463H119.698V7.50536H134.536V11.1548L127.892 18.8667H134.777V23.8244H119.457Z" fill="black"/>
<path d="M141.614 24.1686C140.581 24.1686 139.617 23.985 138.722 23.6178C137.85 23.2506 137.15 22.6767 136.622 21.8964C136.094 21.116 135.83 20.1291 135.83 18.9355C135.83 17.2141 136.404 15.8829 137.552 14.9419C138.699 13.9779 140.432 13.4959 142.75 13.4959H146.985V13.186C146.985 12.5434 146.721 12.0728 146.193 11.7745C145.665 11.4761 144.736 11.3269 143.404 11.3269C141.522 11.3269 139.663 11.6138 137.827 12.1876V8.29721C138.653 7.97588 139.686 7.71193 140.926 7.50536C142.165 7.27584 143.427 7.16108 144.713 7.16108C147.306 7.16108 149.361 7.68898 150.875 8.74478C152.39 9.80058 153.148 11.4761 153.148 13.7713V23.8244H147.501L147.192 22.5161C146.618 23.021 145.872 23.4227 144.954 23.7211C144.059 24.0194 142.945 24.1686 141.614 24.1686ZM143.818 20.3815C144.552 20.3815 145.172 20.2553 145.677 20.0028C146.205 19.7503 146.641 19.4405 146.985 19.0733V17.042H143.852C142.429 17.042 141.717 17.6043 141.717 18.729C141.717 19.8307 142.417 20.3815 143.818 20.3815Z" fill="black"/>
<path d="M40.0259 38C39.7149 38 39.4306 37.9216 39.1728 37.7647C38.9178 37.6078 38.7147 37.3976 38.5634 37.1343C38.4149 36.8681 38.3407 36.5725 38.3407 36.2475L38.3491 33.562C38.3491 33.2426 38.4219 32.954 38.5676 32.6962C38.7133 32.4357 38.9136 32.2269 39.1686 32.07C39.4264 31.9103 39.7121 31.8305 40.0259 31.8305C40.3453 31.8305 40.6297 31.9075 40.8791 32.0616C41.1312 32.2157 41.3316 32.4245 41.4801 32.6878C41.6313 32.9484 41.707 33.2398 41.707 33.562V33.957C41.707 33.9794 41.6958 33.9907 41.6734 33.9907H40.7068C40.6843 33.9907 40.6731 33.9794 40.6731 33.957V33.562C40.6731 33.3715 40.6115 33.2076 40.4882 33.0703C40.3649 32.933 40.2108 32.8643 40.0259 32.8643C39.8214 32.8643 39.6645 32.9344 39.5552 33.0745C39.446 33.2146 39.3913 33.3771 39.3913 33.562V36.2475C39.3913 36.4576 39.453 36.6299 39.5762 36.7644C39.6995 36.8961 39.8494 36.9619 40.0259 36.9619C40.2108 36.9619 40.3649 36.8891 40.4882 36.7434C40.6115 36.5949 40.6731 36.4296 40.6731 36.2475V35.8482C40.6731 35.8258 40.6843 35.8146 40.7068 35.8146H41.6818C41.7042 35.8146 41.7154 35.8258 41.7154 35.8482V36.2475C41.7154 36.5697 41.6398 36.8639 41.4885 37.1301C41.3344 37.3934 41.1312 37.605 40.8791 37.7647C40.6269 37.9216 40.3425 38 40.0259 38Z" fill="black"/>
<path d="M47.8076 38C47.5022 38 47.2206 37.9216 46.9629 37.7647C46.7079 37.6078 46.502 37.399 46.3451 37.1385C46.191 36.8751 46.1139 36.5865 46.1139 36.2727L46.1223 33.5452C46.1223 33.2258 46.1994 32.9386 46.3535 32.6836C46.5048 32.4259 46.7093 32.2199 46.9671 32.0658C47.2248 31.9089 47.505 31.8305 47.8076 31.8305C48.1214 31.8305 48.403 31.9075 48.6523 32.0616C48.9045 32.2157 49.1062 32.4231 49.2575 32.6836C49.4116 32.9414 49.4887 33.2286 49.4887 33.5452L49.4971 36.2727C49.4971 36.5865 49.4214 36.8737 49.2701 37.1343C49.116 37.3976 48.9115 37.6078 48.6565 37.7647C48.4016 37.9216 48.1186 38 47.8076 38ZM47.8076 36.9619C47.9813 36.9619 48.1326 36.8919 48.2615 36.7518C48.3904 36.6089 48.4548 36.4492 48.4548 36.2727L48.4464 33.5452C48.4464 33.3546 48.3862 33.1935 48.2657 33.0619C48.1452 32.9302 47.9925 32.8643 47.8076 32.8643C47.6311 32.8643 47.4798 32.9288 47.3537 33.0577C47.2276 33.1865 47.1646 33.349 47.1646 33.5452V36.2727C47.1646 36.4604 47.2276 36.6229 47.3537 36.7602C47.4798 36.8947 47.6311 36.9619 47.8076 36.9619Z" fill="black"/>
<path d="M54.9588 37.9159H54.0973C54.0525 37.9159 54.0301 37.8963 54.0301 37.8571L54.0217 31.9944C54.0217 31.9496 54.0441 31.9271 54.0889 31.9271H54.8664L56.3205 35.3187L56.2785 31.9944C56.2785 31.9496 56.3037 31.9271 56.3541 31.9271H57.2073C57.2409 31.9271 57.2577 31.9496 57.2577 31.9944L57.2661 37.8655C57.2661 37.8991 57.2521 37.9159 57.2241 37.9159H56.4676L54.9757 34.7471L55.0387 37.8487C55.0387 37.8935 55.0121 37.9159 54.9588 37.9159Z" fill="black"/>
<path d="M63.3499 38C63.0445 38 62.7629 37.9216 62.5052 37.7647C62.2502 37.6078 62.0457 37.399 61.8916 37.1385C61.7403 36.8751 61.6646 36.5865 61.6646 36.2727V35.8777C61.6646 35.8468 61.6786 35.8314 61.7066 35.8314H62.6733C62.6957 35.8314 62.7069 35.8468 62.7069 35.8777V36.2727C62.7069 36.4604 62.7699 36.6229 62.896 36.7602C63.0221 36.8947 63.1734 36.9619 63.3499 36.9619C63.5292 36.9619 63.6819 36.8933 63.808 36.756C63.9341 36.6159 63.9971 36.4548 63.9971 36.2727C63.9971 36.0626 63.8598 35.8791 63.5852 35.7222C63.5404 35.6941 63.4816 35.6605 63.4087 35.6213C63.3387 35.5793 63.2546 35.5316 63.1566 35.4784C63.0585 35.4252 62.9632 35.3733 62.8708 35.3229C62.7783 35.2697 62.6887 35.2192 62.6018 35.1716C62.288 34.9867 62.0541 34.7555 61.9 34.4782C61.7487 34.198 61.673 33.8842 61.673 33.5368C61.673 33.2174 61.7515 32.9288 61.9084 32.671C62.0653 32.4161 62.2698 32.2143 62.522 32.0658C62.7769 31.9145 63.0529 31.8389 63.3499 31.8389C63.6553 31.8389 63.9355 31.9145 64.1904 32.0658C64.4454 32.2199 64.6485 32.4245 64.7998 32.6794C64.9539 32.9344 65.031 33.2202 65.031 33.5368V34.2428C65.031 34.2652 65.0198 34.2764 64.9973 34.2764H64.0307C64.0083 34.2764 63.9971 34.2652 63.9971 34.2428L63.9887 33.5368C63.9887 33.335 63.9257 33.1711 63.7996 33.0451C63.6735 32.919 63.5236 32.8559 63.3499 32.8559C63.1734 32.8559 63.0221 32.9232 62.896 33.0577C62.7699 33.1921 62.7069 33.3518 62.7069 33.5368C62.7069 33.7245 62.7461 33.8814 62.8246 34.0075C62.9058 34.1335 63.0529 34.254 63.2658 34.3689C63.2883 34.3801 63.3401 34.4081 63.4213 34.4529C63.5026 34.4978 63.5923 34.5482 63.6903 34.6042C63.7912 34.6575 63.8822 34.7065 63.9635 34.7513C64.0447 34.7934 64.0938 34.8186 64.1106 34.827C64.3964 34.9867 64.6219 35.1828 64.7872 35.4154C64.9553 35.6479 65.0394 35.9337 65.0394 36.2727C65.0394 36.6005 64.9637 36.8947 64.8124 37.1553C64.6583 37.4158 64.4538 37.6218 64.1988 37.7731C63.9439 37.9243 63.6609 38 63.3499 38Z" fill="black"/>
<path d="M71.0937 38C70.7911 38 70.511 37.9216 70.2532 37.7647C69.9954 37.6078 69.7895 37.3976 69.6354 37.1343C69.4841 36.8681 69.4085 36.5781 69.4085 36.2643L69.4253 31.9608C69.4253 31.9384 69.4365 31.9271 69.4589 31.9271H70.4255C70.4479 31.9271 70.4591 31.9384 70.4591 31.9608V36.2643C70.4591 36.4576 70.5208 36.6229 70.644 36.7602C70.7673 36.8947 70.9172 36.9619 71.0937 36.9619C71.2787 36.9619 71.4327 36.8947 71.556 36.7602C71.6793 36.6229 71.741 36.4576 71.741 36.2643V31.9608C71.741 31.9384 71.7522 31.9271 71.7746 31.9271H72.7412C72.7636 31.9271 72.7748 31.9384 72.7748 31.9608L72.7916 36.2643C72.7916 36.5809 72.716 36.8723 72.5647 37.1385C72.4106 37.4018 72.206 37.612 71.9511 37.7689C71.6961 37.923 71.4103 38 71.0937 38Z" fill="black"/>
<path d="M80.1572 37.9159H77.375C77.3526 37.9159 77.3414 37.9019 77.3414 37.8739L77.3498 31.9692C77.3498 31.9412 77.3638 31.9271 77.3919 31.9271H78.3501C78.3781 31.9271 78.3921 31.9412 78.3921 31.9692L78.3837 36.8569H80.1572C80.1852 36.8569 80.1992 36.8709 80.1992 36.8989V37.8739C80.1992 37.9019 80.1852 37.9159 80.1572 37.9159Z" fill="black"/>
<path d="M85.867 37.9159H84.8961C84.8709 37.9159 84.8583 37.9019 84.8583 37.8739V32.9652H83.7404C83.7124 32.9652 83.6984 32.9512 83.6984 32.9232L83.7068 31.9608C83.7068 31.9384 83.718 31.9271 83.7404 31.9271H87.0101C87.0409 31.9271 87.0563 31.9384 87.0563 31.9608V32.9232C87.0563 32.9512 87.0451 32.9652 87.0227 32.9652H85.8922L85.9006 37.8739C85.9006 37.9019 85.8894 37.9159 85.867 37.9159Z" fill="black"/>
<path d="M92.7661 38C92.4607 38 92.1791 37.9216 91.9213 37.7647C91.6664 37.6078 91.4604 37.399 91.3035 37.1385C91.1494 36.8751 91.0724 36.5865 91.0724 36.2727L91.0808 33.5452C91.0808 33.2258 91.1578 32.9386 91.3119 32.6836C91.4632 32.4259 91.6678 32.2199 91.9255 32.0658C92.1833 31.9089 92.4635 31.8305 92.7661 31.8305C93.0799 31.8305 93.3614 31.9075 93.6108 32.0616C93.863 32.2157 94.0647 32.4231 94.216 32.6836C94.3701 32.9414 94.4471 33.2286 94.4471 33.5452L94.4555 36.2727C94.4555 36.5865 94.3799 36.8737 94.2286 37.1343C94.0745 37.3976 93.87 37.6078 93.615 37.7647C93.36 37.9216 93.0771 38 92.7661 38ZM92.7661 36.9619C92.9398 36.9619 93.0911 36.8919 93.2199 36.7518C93.3488 36.6089 93.4133 36.4492 93.4133 36.2727L93.4049 33.5452C93.4049 33.3546 93.3446 33.1935 93.2241 33.0619C93.1037 32.9302 92.951 32.8643 92.7661 32.8643C92.5895 32.8643 92.4383 32.9288 92.3122 33.0577C92.1861 33.1865 92.123 33.349 92.123 33.5452V36.2727C92.123 36.4604 92.1861 36.6229 92.3122 36.7602C92.4383 36.8947 92.5895 36.9619 92.7661 36.9619Z" fill="black"/>
<path d="M99.9888 37.9159H99.0137C98.9913 37.9159 98.9801 37.9019 98.9801 37.8739L98.9969 31.9608C98.9969 31.9384 99.0081 31.9271 99.0306 31.9271H100.77C101.081 31.9271 101.367 32.0028 101.628 32.1541C101.888 32.3054 102.096 32.5085 102.25 32.7635C102.407 33.0184 102.485 33.307 102.485 33.6292C102.485 33.8394 102.453 34.0299 102.388 34.2008C102.324 34.3717 102.248 34.516 102.162 34.6337C102.077 34.7513 102 34.8382 101.93 34.8942C102.241 35.2388 102.397 35.6437 102.397 36.1088L102.405 37.8739C102.405 37.9019 102.391 37.9159 102.363 37.9159H101.388C101.366 37.9159 101.355 37.9075 101.355 37.8907V36.1088C101.355 35.9015 101.282 35.7222 101.136 35.5709C100.99 35.4196 100.811 35.3439 100.598 35.3439H100.031L100.022 37.8739C100.022 37.9019 100.011 37.9159 99.9888 37.9159ZM100.77 32.9568H100.031V34.3101H100.77C100.947 34.3101 101.104 34.2442 101.241 34.1125C101.381 33.9808 101.451 33.8197 101.451 33.6292C101.451 33.4471 101.384 33.2902 101.25 33.1585C101.115 33.024 100.955 32.9568 100.77 32.9568Z" fill="black"/>
<path d="M108.023 37.9159H107.048C107.02 37.9159 107.006 37.9019 107.006 37.8739L107.014 31.9608C107.014 31.9384 107.025 31.9271 107.048 31.9271H108.014C108.037 31.9271 108.048 31.9384 108.048 31.9608L108.056 37.8739C108.056 37.9019 108.045 37.9159 108.023 37.9159Z" fill="black"/>
<path d="M112.396 37.8739L113.463 31.9608C113.469 31.9384 113.483 31.9271 113.505 31.9271H114.754C114.776 31.9271 114.79 31.9384 114.796 31.9608L115.821 37.8739C115.824 37.9019 115.813 37.9159 115.787 37.9159H114.833C114.805 37.9159 114.79 37.9019 114.787 37.8739L114.695 37.2435H113.522L113.43 37.8739C113.427 37.9019 113.413 37.9159 113.388 37.9159H112.429C112.407 37.9159 112.396 37.9019 112.396 37.8739ZM114.081 33.9066L113.695 36.3231H114.522L114.169 33.9066L114.119 33.5872L114.081 33.9066Z" fill="black"/>
</svg>
