<svg width="15" height="15" viewBox="0 0 15 15" fill="none" xmlns="http://www.w3.org/2000/svg">
<path d="M15 7.5C15 11.6421 11.6421 15 7.5 15C3.35786 15 0 11.6421 0 7.5C0 3.35786 3.35786 0 7.5 0C11.6421 0 15 3.35786 15 7.5Z" fill="#FF6242"/>
<path d="M7.4014 2.13C8.3534 2.13 9.11407 2.39133 9.6834 2.914C10.2621 3.43667 10.5514 4.15067 10.5514 5.056C10.5514 5.99867 10.2527 6.708 9.6554 7.184C9.05807 7.66 8.26473 7.898 7.2754 7.898L7.2194 9.004H5.8334L5.7634 6.806H6.2254C7.13073 6.806 7.8214 6.68467 8.2974 6.442C8.78273 6.19933 9.0254 5.73733 9.0254 5.056C9.0254 4.56133 8.88073 4.174 8.5914 3.894C8.3114 3.614 7.9194 3.474 7.4154 3.474C6.9114 3.474 6.51473 3.60933 6.2254 3.88C5.93607 4.15067 5.7914 4.52867 5.7914 5.014H4.2934C4.2934 4.454 4.4194 3.95467 4.6714 3.516C4.9234 3.07733 5.28273 2.73667 5.7494 2.494C6.2254 2.25133 6.77607 2.13 7.4014 2.13ZM6.5054 12.098C6.21607 12.098 5.9734 12 5.7774 11.804C5.5814 11.608 5.4834 11.3653 5.4834 11.076C5.4834 10.7867 5.5814 10.544 5.7774 10.348C5.9734 10.152 6.21607 10.054 6.5054 10.054C6.7854 10.054 7.0234 10.152 7.2194 10.348C7.4154 10.544 7.5134 10.7867 7.5134 11.076C7.5134 11.3653 7.4154 11.608 7.2194 11.804C7.0234 12 6.7854 12.098 6.5054 12.098Z" fill="white"/>
</svg>
